# xmcd
# Track frame offsets:
# 150
# 14093
# 33136
# 57230
# 72455
# 90307
# 105457
# 120383
# 137488
# 156826
# 174082
# 189460
# 203222
# 221865
# 238414
#
# Disc length: 3385 seconds
# Revision: 0
# Processed by: cddbd v1.5.1PL0 Copyright (c) Steve Scherf et al.
# Submitted via: VisiTrax 2.9.10.228 - For more info visit www.synapsa.com
#
DISCID=cd0d370f
DTITLE=TOBY KEITH - ASK1531
DYEAR=2005
DGENRE=Country
TTITLE0=How Do You Like Me Now
TTITLE1=COUNTRY COMES TO DOWN
TTITLE2=YOU SHOULDN'T KISS ME LIKE THAT
TTITLE3=I'M JUST TALKING ABOUT TONIGHT
TTITLE4=I WANNA TALK ABOUT ME
TTITLE5=MY LIST
TTITLE6=COURTESY OF THE RED WHITE and BLUE
TTITLE7=WHO'S YOUR DADDY
TTITLE8=BEER FOR MY HORSES
TTITLE9=STAYS IN MEXICO
TTITLE10=MOCKINGBIRD
TTITLE11=GO WITH HER
TTITLE12=YOU AIN'T MUCH FUN
TTITLE13=SHOULD'VE BEEN A COWBOY
TTITLE14=I LOVE THIS BAR
EXTD=
EXTT0=
EXTT1=
EXTT2=
EXTT3=
EXTT4=
EXTT5=
EXTT6=
EXTT7=
EXTT8=
EXTT9=
EXTT10=
EXTT11=
EXTT12=
EXTT13=
EXTT14=
PLAYORDER=
